<svg width="48" height="48" viewBox="0 0 48 48" fill="none" xmlns="http://www.w3.org/2000/svg">
<rect x="0.375" y="0.375" width="47.25" height="47.25" rx="23.625" fill="black"/>
<rect x="0.375" y="0.375" width="47.25" height="47.25" rx="23.625" stroke="#252B37" stroke-width="0.75"/>
<path d="M23.853 38.3095C15.9053 38.3095 9.43652 31.8407 9.43652 23.8931C9.43652 15.9454 15.9053 9.47656 23.853 9.47656C31.8007 9.47656 38.2695 15.9454 38.2695 23.8931C38.2695 31.8407 31.8007 38.3095 23.853 38.3095ZM23.853 11.8018C17.1842 11.8018 11.7618 17.2243 11.7618 23.8931C11.7618 30.5618 17.1842 35.9843 23.853 35.9843C30.5218 35.9843 35.9443 30.5618 35.9443 23.8931C35.9443 17.2243 30.5218 11.8018 23.853 11.8018Z" fill="#FDFDFD"/>
<path d="M19.6684 22.4737C16.9433 22.4737 13.9948 22.0692 10.8511 21.2507C10.228 21.0879 9.85592 20.4554 10.0187 19.8323C10.1815 19.2091 10.8139 18.8371 11.4371 18.9998C20.9613 21.4739 28.416 19.9067 32.9921 14.4749C33.406 13.9866 34.1407 13.9215 34.629 14.3354C35.122 14.7493 35.1824 15.4841 34.7686 15.9724C31.1365 20.2834 26.0024 22.4737 19.6684 22.4737Z" fill="#FDFDFD"/>
<path d="M13.8557 33.7573C13.586 33.7573 13.3209 33.6643 13.1023 33.4783C12.614 33.0597 12.5582 32.325 12.9721 31.8367C19.7711 23.889 28.5698 22.0009 37.1128 26.6653C37.6755 26.9723 37.8847 27.6791 37.5778 28.2418C37.2709 28.8045 36.564 29.0138 36.0013 28.7069C25.7423 23.1124 18.2783 29.2138 14.7393 33.3527C14.5114 33.6178 14.1859 33.7573 13.8557 33.7573Z" fill="#FDFDFD"/>
<path d="M27.6611 37.7508C27.6193 37.7508 27.5774 37.7508 27.5356 37.7461C26.8984 37.6764 26.438 37.1044 26.5078 36.4626C27.4146 28.1476 25.2754 19.7627 20.1552 11.5314C19.8158 10.9873 19.9832 10.2711 20.5273 9.93162C21.0714 9.59213 21.7876 9.75955 22.1271 10.3037C27.5309 18.9861 29.7817 27.8732 28.8191 36.7184C28.7493 37.3137 28.2471 37.7508 27.6611 37.7508Z" fill="#FDFDFD"/>
</svg>
